<svg width="62" height="12" viewBox="0 0 62 12" fill="none" xmlns="http://www.w3.org/2000/svg">
<path d="M6.45227 9.81508L6.45224 9.81511C6.73473 10.1075 6.73938 10.5814 6.44922 10.8711C6.44916 10.8711 6.44909 10.8712 6.44902 10.8713L6.27245 10.6943C6.07508 10.8917 5.76435 10.8917 5.56698 10.6943L1.14303 6.27034C0.952324 6.07963 0.952324 5.76224 1.14303 5.57198L6.45227 9.81508ZM6.45227 9.81508L6.44906 9.81188L3.29967 6.66837H60.4993C60.9125 6.66837 61.2502 6.33062 61.2502 5.91738C61.2502 5.49951 60.9078 5.17351 60.4993 5.17351H3.29888L6.44902 2.02337L6.27245 1.84638L6.44923 2.02316L6.44913 2.02325C6.73774 1.73519 6.73741 1.25943 6.44923 0.971252C6.15422 0.67625 5.68521 0.67625 5.3902 0.971251L0.966457 5.395C0.966388 5.39507 0.966319 5.39514 0.966251 5.39521L6.45227 9.81508Z" fill="#BA967D" stroke="#BA967D" stroke-width="0.5"/>
</svg>
