<svg width="62" height="12" viewBox="0 0 62 12" fill="none" xmlns="http://www.w3.org/2000/svg">
<path d="M55.5482 2.0272L55.5483 2.02718C55.2658 1.7348 55.2611 1.26093 55.5513 0.971218C55.5513 0.971149 55.5514 0.97108 55.5515 0.971012L55.728 1.14799C55.9254 0.950624 56.2361 0.950624 56.4335 1.14799L60.8575 5.57195C61.0482 5.76265 61.0482 6.08004 60.8575 6.2703L55.5482 2.0272ZM55.5482 2.0272L55.5514 2.0304L58.7008 5.17392L1.50123 5.17392C1.088 5.17392 0.750245 5.51166 0.750245 5.9249C0.750245 6.34277 1.09268 6.66877 1.50123 6.66877L58.7016 6.66878L55.5515 9.81892L55.728 9.9959L55.5513 9.81912L55.5514 9.81903C55.2627 10.1071 55.2631 10.5829 55.5513 10.871C55.8463 11.166 56.3153 11.166 56.6103 10.871L61.034 6.44729C61.0341 6.44722 61.0342 6.44715 61.0342 6.44708L55.5482 2.0272Z" fill="#BA967D" stroke="#BA967D" stroke-width="0.5"/>
</svg>
