<svg width="17" height="20" viewBox="0 0 17 20" fill="none" xmlns="http://www.w3.org/2000/svg">
<path d="M16.2726 19.1647L15.0756 5.61138C15.0429 5.24125 14.7378 4.95774 14.3723 4.95774H11.9037V3.82582C11.9037 1.71626 10.2157 0 8.14078 0C6.066 0 4.37815 1.71626 4.37815 3.82582V4.95774H1.90786C1.54239 4.95774 1.23726 5.24125 1.20459 5.61138L0.00282333 19.218C-0.0148761 19.4188 0.0512142 19.6178 0.184995 19.7666C0.318776 19.9153 0.507915 20 0.706092 20H15.5742C15.5747 20 15.5755 20 15.576 20C15.9661 20 16.2821 19.6786 16.2821 19.2821C16.282 19.2422 16.2788 19.2029 16.2726 19.1647ZM5.79034 3.82582C5.79034 2.50792 6.84477 1.43572 8.14088 1.43572C9.43708 1.43572 10.4916 2.50792 10.4916 3.82582V4.95774H5.79034V3.82582ZM1.47846 18.5644L2.55342 6.39346H4.37815V7.67719C4.37815 8.07364 4.6942 8.39505 5.08425 8.39505C5.47429 8.39505 5.79034 8.07364 5.79034 7.67719V6.39346H10.4916V7.67719C10.4916 8.07364 10.8077 8.39505 11.1977 8.39505C11.5877 8.39505 11.9038 8.07364 11.9038 7.67719V6.39346H13.7268L14.8018 18.5644H1.47846Z" fill="#BA967D"/>
</svg>
