<svg width="66" height="58" viewBox="0 0 66 58" fill="none" xmlns="http://www.w3.org/2000/svg">
<mask id="path-1-inside-1_496_3" fill="white">
<path d="M8.28087 13.1248C3.50737 13.5047 -0.411945 17.6862 0.0346924 22.5977C0.418048 26.8137 4.14508 30.2732 8.50712 29.8102C12.1648 29.4222 15.1654 26.1467 14.6799 22.3326C14.2853 19.2343 11.455 16.6876 8.18607 17.2078C5.6482 17.6117 3.54964 20.011 4.12871 22.7402C4.33859 23.729 4.90641 24.5871 5.71491 25.1691C6.5234 25.7511 7.6505 26.0365 8.74852 25.6868C9.46784 25.4579 10.042 24.9983 10.4312 24.3379C10.8205 23.6772 10.9468 22.6478 10.4263 21.8305C10.0068 21.1713 9.62176 21.0409 9.01753 20.9392C8.71554 20.8884 8.29309 20.8696 7.84352 21.1621C7.39395 21.4545 7.15573 22.0592 7.15573 22.4868C7.15157 22.8132 7.27789 23.1277 7.50708 23.3601C7.38711 23.3256 7.26812 23.2772 7.14205 23.1863C6.84763 22.9743 6.59401 22.5894 6.51827 22.233C6.25952 21.0133 7.30746 19.8221 8.56943 19.6211C10.3648 19.3352 12.0253 20.8307 12.2559 22.6407C12.5567 25.0037 10.6084 27.1296 8.24887 27.3798C5.323 27.6903 2.7326 25.2859 2.46799 22.3759C2.15085 18.89 5.01294 15.8359 8.47463 15.5605C8.50541 15.5581 8.53644 15.5566 8.56723 15.5549H57.4335C57.4643 15.5573 57.4951 15.5583 57.5256 15.5605C60.9873 15.8359 63.8494 18.89 63.5322 22.3764C63.2676 25.2866 60.6772 27.6908 57.7514 27.3803C55.3916 27.1298 53.4433 25.0039 53.7443 22.6412C53.9747 20.831 55.6352 19.3357 57.4308 19.6215C58.6928 19.8224 59.7407 21.0135 59.4817 22.2334C59.406 22.5899 59.1524 22.975 58.8579 23.1868C58.7319 23.2775 58.6136 23.3261 58.4939 23.3605C58.7226 23.1279 58.8487 22.8135 58.8443 22.4873C58.8443 22.0597 58.6065 21.455 58.1572 21.1625C57.7076 20.8701 57.2854 20.8889 56.9832 20.9397C56.379 21.0414 55.9936 21.1721 55.5739 21.831C55.0537 22.6481 55.1803 23.6777 55.5695 24.3384C55.9587 24.999 56.5329 25.4586 57.2522 25.6873C58.3502 26.0367 59.4768 25.7516 60.2853 25.1696C61.0938 24.5876 61.6616 23.7295 61.8715 22.7407C62.4506 20.0117 60.352 17.6124 57.8144 17.2083C54.5455 16.6881 51.7149 19.2348 51.3206 22.3331C50.8348 26.1471 53.8362 29.4224 57.4938 29.8106C61.8556 30.2734 65.5824 26.8142 65.9658 22.598C66.4124 17.6864 62.4931 13.5047 57.7196 13.125C57.6204 13.1099 57.5288 13.116 57.4337 13.114H8.56747C8.47243 13.1082 8.37176 13.1184 8.28087 13.1248ZM3.68036 0.9021C3.00576 0.9021 2.4587 1.44916 2.4587 2.12376V4.56707C2.4587 4.89105 2.58747 5.20184 2.81665 5.43078L7.70327 10.3174C7.93246 10.5466 8.243 10.6754 8.56699 10.6754H57.4332C57.7572 10.6754 58.068 10.5466 58.297 10.3174L63.1836 5.43078C63.4128 5.2016 63.5415 4.89105 63.5415 4.56707V2.12376C63.5415 1.44916 62.9945 0.9021 62.3199 0.9021H3.68036ZM4.90202 3.5H61.0982V4.06082L56.927 8.23204H9.07275L4.90202 4.06082V3.5ZM18.3402 20.4486C17.6656 20.4486 17.1186 20.9957 17.1186 21.6703V55.8766C17.1188 56.5515 17.6659 57.0983 18.3407 57.0981C18.5819 57.0981 18.8174 57.0267 19.018 56.8931L25.967 52.2598C26.3008 52.0375 26.5041 51.6654 26.5112 51.2644L26.8916 29.0207C26.8916 29.0139 26.8916 29.007 26.8916 29.0002C26.8916 28.1988 29.3491 28.1761 29.3349 28.9782C29.3349 28.9855 29.3349 28.9929 29.3349 29.0002V48.5467C29.3351 49.2215 29.8822 49.7684 30.557 49.7681C30.7982 49.7681 31.0337 49.6968 31.2343 49.5631L38.5643 44.6765C38.9041 44.45 39.1082 44.0686 39.1084 43.6601V29.0002C39.1084 28.1844 41.5517 28.1844 41.5517 29.0002V41.2168C41.552 41.8916 42.0993 42.4384 42.7741 42.4379C42.9635 42.4379 43.1504 42.3937 43.3199 42.3089L48.2066 39.8656C48.6202 39.6587 48.8816 39.236 48.8819 38.7732V21.67C48.8819 20.9954 48.3348 20.4484 47.6602 20.4484L18.3402 20.4486ZM19.5619 22.8919H46.4383V38.018L43.995 39.2396V29.0002C43.995 24.9277 36.6651 24.9277 36.6651 29.0002V43.0062L31.7785 46.2642V29.0002V29.0217C31.851 24.9355 24.449 24.9133 24.449 29.0002V28.9792L24.0796 50.5825L19.5624 53.5941L19.5619 22.8919Z"/>
</mask>
<path d="M8.28087 13.1248C3.50737 13.5047 -0.411945 17.6862 0.0346924 22.5977C0.418048 26.8137 4.14508 30.2732 8.50712 29.8102C12.1648 29.4222 15.1654 26.1467 14.6799 22.3326C14.2853 19.2343 11.455 16.6876 8.18607 17.2078C5.6482 17.6117 3.54964 20.011 4.12871 22.7402C4.33859 23.729 4.90641 24.5871 5.71491 25.1691C6.5234 25.7511 7.6505 26.0365 8.74852 25.6868C9.46784 25.4579 10.042 24.9983 10.4312 24.3379C10.8205 23.6772 10.9468 22.6478 10.4263 21.8305C10.0068 21.1713 9.62176 21.0409 9.01753 20.9392C8.71554 20.8884 8.29309 20.8696 7.84352 21.1621C7.39395 21.4545 7.15573 22.0592 7.15573 22.4868C7.15157 22.8132 7.27789 23.1277 7.50708 23.3601C7.38711 23.3256 7.26812 23.2772 7.14205 23.1863C6.84763 22.9743 6.59401 22.5894 6.51827 22.233C6.25952 21.0133 7.30746 19.8221 8.56943 19.6211C10.3648 19.3352 12.0253 20.8307 12.2559 22.6407C12.5567 25.0037 10.6084 27.1296 8.24887 27.3798C5.323 27.6903 2.7326 25.2859 2.46799 22.3759C2.15085 18.89 5.01294 15.8359 8.47463 15.5605C8.50541 15.5581 8.53644 15.5566 8.56723 15.5549H57.4335C57.4643 15.5573 57.4951 15.5583 57.5256 15.5605C60.9873 15.8359 63.8494 18.89 63.5322 22.3764C63.2676 25.2866 60.6772 27.6908 57.7514 27.3803C55.3916 27.1298 53.4433 25.0039 53.7443 22.6412C53.9747 20.831 55.6352 19.3357 57.4308 19.6215C58.6928 19.8224 59.7407 21.0135 59.4817 22.2334C59.406 22.5899 59.1524 22.975 58.8579 23.1868C58.7319 23.2775 58.6136 23.3261 58.4939 23.3605C58.7226 23.1279 58.8487 22.8135 58.8443 22.4873C58.8443 22.0597 58.6065 21.455 58.1572 21.1625C57.7076 20.8701 57.2854 20.8889 56.9832 20.9397C56.379 21.0414 55.9936 21.1721 55.5739 21.831C55.0537 22.6481 55.1803 23.6777 55.5695 24.3384C55.9587 24.999 56.5329 25.4586 57.2522 25.6873C58.3502 26.0367 59.4768 25.7516 60.2853 25.1696C61.0938 24.5876 61.6616 23.7295 61.8715 22.7407C62.4506 20.0117 60.352 17.6124 57.8144 17.2083C54.5455 16.6881 51.7149 19.2348 51.3206 22.3331C50.8348 26.1471 53.8362 29.4224 57.4938 29.8106C61.8556 30.2734 65.5824 26.8142 65.9658 22.598C66.4124 17.6864 62.4931 13.5047 57.7196 13.125C57.6204 13.1099 57.5288 13.116 57.4337 13.114H8.56747C8.47243 13.1082 8.37176 13.1184 8.28087 13.1248ZM3.68036 0.9021C3.00576 0.9021 2.4587 1.44916 2.4587 2.12376V4.56707C2.4587 4.89105 2.58747 5.20184 2.81665 5.43078L7.70327 10.3174C7.93246 10.5466 8.243 10.6754 8.56699 10.6754H57.4332C57.7572 10.6754 58.068 10.5466 58.297 10.3174L63.1836 5.43078C63.4128 5.2016 63.5415 4.89105 63.5415 4.56707V2.12376C63.5415 1.44916 62.9945 0.9021 62.3199 0.9021H3.68036ZM4.90202 3.5H61.0982V4.06082L56.927 8.23204H9.07275L4.90202 4.06082V3.5ZM18.3402 20.4486C17.6656 20.4486 17.1186 20.9957 17.1186 21.6703V55.8766C17.1188 56.5515 17.6659 57.0983 18.3407 57.0981C18.5819 57.0981 18.8174 57.0267 19.018 56.8931L25.967 52.2598C26.3008 52.0375 26.5041 51.6654 26.5112 51.2644L26.8916 29.0207C26.8916 29.0139 26.8916 29.007 26.8916 29.0002C26.8916 28.1988 29.3491 28.1761 29.3349 28.9782C29.3349 28.9855 29.3349 28.9929 29.3349 29.0002V48.5467C29.3351 49.2215 29.8822 49.7684 30.557 49.7681C30.7982 49.7681 31.0337 49.6968 31.2343 49.5631L38.5643 44.6765C38.9041 44.45 39.1082 44.0686 39.1084 43.6601V29.0002C39.1084 28.1844 41.5517 28.1844 41.5517 29.0002V41.2168C41.552 41.8916 42.0993 42.4384 42.7741 42.4379C42.9635 42.4379 43.1504 42.3937 43.3199 42.3089L48.2066 39.8656C48.6202 39.6587 48.8816 39.236 48.8819 38.7732V21.67C48.8819 20.9954 48.3348 20.4484 47.6602 20.4484L18.3402 20.4486ZM19.5619 22.8919H46.4383V38.018L43.995 39.2396V29.0002C43.995 24.9277 36.6651 24.9277 36.6651 29.0002V43.0062L31.7785 46.2642V29.0002V29.0217C31.851 24.9355 24.449 24.9133 24.449 29.0002V28.9792L24.0796 50.5825L19.5624 53.5941L19.5619 22.8919Z" fill="#BA967D" stroke="white" stroke-width="0.6" mask="url(#path-1-inside-1_496_3)"/>
</svg>
