<svg width="62" height="12" viewBox="0 0 62 12" fill="none" xmlns="http://www.w3.org/2000/svg">
<path opacity="0.5" d="M6.45202 9.81508L6.45199 9.81511C6.73449 10.1075 6.73914 10.5814 6.44898 10.8711C6.44891 10.8711 6.44884 10.8712 6.44877 10.8713L6.2722 10.6943C6.07483 10.8917 5.76411 10.8917 5.56674 10.6943L1.14278 6.27034C0.95208 6.07963 0.95208 5.76224 1.14278 5.57198L6.45202 9.81508ZM6.45202 9.81508L6.44882 9.81188L3.29943 6.66837H60.499C60.9122 6.66837 61.25 6.33062 61.25 5.91738C61.25 5.49951 60.9076 5.17351 60.499 5.17351H3.29863L6.44877 2.02337L6.2722 1.84638L6.44898 2.02316L6.44889 2.02325C6.7375 1.73519 6.73716 1.25943 6.44898 0.971252C6.15398 0.67625 5.68496 0.67625 5.38996 0.971251L0.966213 5.395C0.966144 5.39507 0.966075 5.39514 0.966006 5.39521L6.45202 9.81508Z" fill="#333333" stroke="#333333" stroke-width="0.5"/>
</svg>
