<svg width="62" height="12" viewBox="0 0 62 12" fill="none" xmlns="http://www.w3.org/2000/svg">
<path opacity="0.5" d="M55.548 2.0272L55.548 2.02718C55.2655 1.7348 55.2609 1.26093 55.551 0.971218C55.5511 0.971149 55.5512 0.97108 55.5512 0.971012L55.7278 1.14799C55.9252 0.950624 56.2359 0.950624 56.4333 1.14799L60.8572 5.57195C61.0479 5.76265 61.0479 6.08004 60.8572 6.2703L55.548 2.0272ZM55.548 2.0272L55.5512 2.0304L58.7006 5.17392L1.50098 5.17392C1.08775 5.17392 0.75 5.51166 0.75 5.9249C0.75 6.34277 1.09243 6.66877 1.50098 6.66877L58.7014 6.66878L55.5512 9.81892L55.7278 9.9959L55.551 9.81912L55.5511 9.81903C55.2625 10.1071 55.2628 10.5829 55.551 10.871C55.846 11.166 56.315 11.166 56.61 10.871L61.0338 6.44729C61.0339 6.44722 61.0339 6.44715 61.034 6.44708L55.548 2.0272Z" fill="#333333" stroke="#333333" stroke-width="0.5"/>
</svg>
